<svg xmlns="http://www.w3.org/2000/svg" viewBox="0 0 1475.66 1662.96"><defs><style>.cls-1{fill:#607c8a;}</style></defs><title>Fichier 1</title><g id="Calque_2" data-name="Calque 2"><g id="Stopwatch_Grey" data-name="Stopwatch Grey"><g id="Stopwatch_group"><path class="cls-1" d="M737.83,300.81c166.76,0,323.54,64.94,441.46,182.86s182.86,274.7,182.86,441.46-64.94,323.54-182.86,441.46-274.7,182.86-441.46,182.86-323.54-64.94-441.46-182.86-182.86-274.7-182.86-441.46,64.94-323.54,182.86-441.46,274.7-182.86,441.46-182.86m0-113.51c-203.75,0-388.2,82.58-521.72,216.1S0,721.38,0,925.13s82.58,388.2,216.11,521.72S534.08,1663,737.83,1663s388.21-82.59,521.73-216.11,216.1-318,216.1-521.72-82.58-388.21-216.1-521.73-318-216.1-521.73-216.1Z"/><rect class="cls-1" x="715.13" y="283.78" width="45.4" height="113.51"/><rect class="cls-1" x="715.13" y="1458.64" width="45.4" height="113.51"/><rect class="cls-1" x="1271.34" y="896.75" width="113.51" height="45.4"/><rect class="cls-1" x="90.81" y="896.75" width="113.51" height="45.4"/><rect class="cls-1" x="261.08" y="1311.06" width="113.52" height="45.42" transform="translate(-850.28 615.8) rotate(-45.02)"/><rect class="cls-1" x="1101.07" y="493.78" width="113.51" height="45.41" transform="translate(-25.85 970.59) rotate(-45.03)"/><rect class="cls-1" x="295.13" y="459.72" width="45.41" height="113.52" transform="translate(-272.62 378.14) rotate(-45.21)"/><rect class="cls-1" x="1135.13" y="1277.02" width="45.4" height="113.51" transform="translate(-602.28 1186.98) rotate(-44.27)"/><path class="cls-1" d="M840,925.13a102.15,102.15,0,1,1-29.92-72.24A101.84,101.84,0,0,1,840,925.13Z"/><path class="cls-1" d="M737.83,981.88a56.56,56.56,0,0,1-39.62-16.11l-293-285.64a56.76,56.76,0,0,1,79.23-81.29L777.45,884.48a56.76,56.76,0,0,1-39.62,97.4Z"/><polyline class="cls-1" points="982.32 692.46 860.08 808.79 737.83 925.13"/><path class="cls-1" d="M737.84,981.88A56.75,56.75,0,0,1,698.71,884L943.2,651.34a56.76,56.76,0,0,1,78.26,82.23L777,966.24A56.54,56.54,0,0,1,737.84,981.88Z"/><rect class="cls-1" x="635.67" y="96.49" width="204.32" height="107.84"/><path class="cls-1" d="M891.07,113.51H584.59A56.76,56.76,0,1,1,584.59,0H891.07a56.76,56.76,0,1,1,0,113.51Z"/><path class="cls-1" d="M1305.36,371.35a56.5,56.5,0,0,1-35-12.13l-136.21-107a56.75,56.75,0,1,1,70.12-89.25l136.22,107a56.76,56.76,0,0,1-35.1,101.39Z"/></g></g></g></svg>